<?xml version="1.0" standalone="no"?>
<!DOCTYPE svg PUBLIC "-//W3C//DTD SVG 20010904//EN"
 "http://www.w3.org/TR/2001/REC-SVG-20010904/DTD/svg10.dtd">
<svg version="1.0" xmlns="http://www.w3.org/2000/svg"
 width="2000.000000pt" height="647.000000pt" viewBox="0 0 2000.000000 647.000000"
 preserveAspectRatio="xMidYMid meet">

<g transform="translate(0.000000,647.000000) scale(0.100000,-0.100000)"
fill="#000000" stroke="none">
<path d="M0 3235 l0 -3235 10000 0 10000 0 0 3235 0 3235 -10000 0 -10000 0 0
-3235z m4889 233 c222 -567 416 -1068 432 -1113 30 -90 59 -217 59 -263 l0
-28 88 3 c48 2 102 5 120 6 l32 3 0 -78 0 -78 -410 0 -410 0 0 60 0 60 31 0
c54 0 106 21 141 57 32 33 33 36 32 121 0 83 -4 97 -75 287 l-74 200 -375 -4
c-206 -2 -417 -6 -469 -10 l-95 -6 -98 -295 c-54 -162 -101 -302 -104 -310 -5
-14 8 -16 93 -13 54 2 115 5 136 6 l37 3 0 -78 0 -78 -335 0 -336 0 3 57 3 58
42 7 c123 21 186 105 281 378 22 63 201 552 396 1085 196 534 358 976 361 983
3 7 22 12 47 12 l44 0 403 -1032z m4631 996 c122 -22 249 -67 378 -134 l113
-60 -5 33 c-3 17 -8 60 -11 95 l-6 62 101 0 100 0 0 -415 0 -415 -68 0 -68 0
-13 75 c-30 180 -92 306 -211 426 -70 71 -100 94 -170 127 -116 55 -217 76
-360 75 -451 -4 -791 -339 -886 -873 -21 -117 -24 -392 -6 -500 66 -381 268
-678 557 -819 126 -62 201 -82 342 -88 134 -6 243 8 363 47 182 60 314 143
437 275 l78 84 45 -39 44 -38 -42 -55 c-59 -76 -210 -219 -274 -260 -175 -112
-372 -178 -596 -199 -568 -54 -1070 275 -1252 820 -54 162 -65 239 -65 447 1
221 15 318 75 496 89 268 234 474 440 628 258 192 606 266 960 205z m6435 11
c156 -13 357 -71 502 -143 l82 -42 -5 68 c-3 37 -7 75 -9 85 -3 15 7 17 96 17
l99 0 0 -410 0 -410 -64 0 -64 0 -7 56 c-50 406 -377 665 -809 641 -120 -7
-194 -25 -295 -73 -144 -67 -287 -195 -380 -338 -236 -366 -265 -932 -68
-1339 159 -330 405 -513 735 -548 198 -20 469 35 632 129 l65 38 3 397 2 397
-42 -5 c-24 -2 -80 -7 -125 -10 l-83 -5 0 80 0 80 405 0 405 0 0 -60 c0 -58
-1 -60 -26 -60 -88 0 -164 -58 -189 -144 -30 -102 -35 -174 -35 -498 l0 -328
-48 0 c-115 0 -220 -22 -407 -85 -143 -48 -225 -70 -325 -86 -353 -55 -696 14
-965 194 -88 59 -232 210 -293 309 -205 332 -251 824 -116 1236 168 508 559
827 1058 862 100 7 134 6 271 -5z m2815 -11 c254 -39 481 -162 671 -362 95
-100 153 -185 215 -316 99 -210 137 -382 138 -621 0 -177 -12 -256 -65 -421
-106 -331 -311 -590 -591 -747 -292 -163 -785 -182 -1120 -42 -393 165 -647
507 -725 975 -21 127 -20 358 1 475 56 302 178 547 366 735 284 284 657 393
1110 324z m-17800 -386 c84 -194 271 -627 415 -963 322 -749 326 -758 336
-748 4 4 81 195 172 423 91 228 233 575 316 771 82 195 197 470 254 610 l104
254 266 3 267 2 0 -59 0 -59 -53 -6 c-82 -11 -127 -41 -161 -109 -25 -51 -30
-73 -33 -160 -3 -56 18 -493 46 -973 28 -479 51 -898 51 -933 l0 -62 130 3
130 3 0 -77 0 -78 -400 0 -400 0 0 60 c0 59 0 60 29 60 39 0 90 18 128 46 39
30 69 105 78 200 7 64 -77 1564 -92 1654 l-5 35 -14 -30 c-7 -16 -176 -433
-375 -925 -198 -492 -384 -950 -412 -1018 l-50 -123 -54 3 -54 3 -65 145
c-456 1016 -648 1460 -780 1805 -56 147 -69 174 -71 145 -1 -19 -9 -303 -18
-630 -9 -327 -20 -750 -25 -940 -5 -189 -8 -345 -7 -345 1 -1 60 1 130 4 71 3
131 4 133 2 2 -2 4 -37 4 -78 l0 -73 -345 0 -345 0 0 59 0 58 48 6 c101 12
149 55 175 158 21 78 24 125 62 1094 19 479 36 896 37 928 l3 59 -128 -4 -127
-3 0 78 0 77 273 0 274 0 153 -352z m6804 230 c3 -68 9 -239 12 -380 l7 -258
-66 0 c-77 0 -73 -8 -81 135 -9 177 -55 311 -130 387 -84 84 -144 99 -412 105
l-212 5 -6 -273 c-4 -151 -8 -656 -9 -1122 l-2 -848 30 5 c17 3 82 6 145 7
l115 2 3 -77 3 -76 -426 0 -426 0 3 57 3 56 63 13 c109 22 153 74 172 201 6
41 10 463 10 1056 l0 987 -218 0 c-236 0 -299 -9 -370 -54 -112 -70 -171 -217
-188 -463 l-7 -103 -65 0 -65 0 7 238 c3 130 9 301 12 380 l7 142 1042 0 1043
0 6 -122z m3614 61 l3 -57 -53 -7 c-88 -12 -136 -43 -172 -110 -20 -39 -21
-52 -24 -482 l-3 -443 641 0 640 0 0 428 c0 236 3 464 7 507 l6 78 -132 -7
-132 -7 3 78 3 78 403 3 402 2 0 -59 0 -59 -47 -7 c-27 -4 -62 -13 -78 -19
-40 -17 -91 -76 -106 -123 -9 -29 -13 -294 -16 -1069 l-5 -1030 89 3 c48 2
105 5 126 6 l37 3 0 -78 0 -78 -405 0 -406 0 3 57 3 58 53 7 c66 10 101 27
140 72 48 55 52 95 52 576 l0 440 -587 -6 c-324 -2 -612 -7 -640 -10 l-53 -5
0 -448 c0 -246 -3 -483 -7 -526 l-6 -78 34 6 c19 4 77 7 129 8 l95 2 3 -77 3
-76 -406 0 -405 0 0 59 0 58 49 6 c93 11 156 59 183 140 8 22 13 353 17 1066
l6 1034 -127 -7 -128 -7 0 81 0 80 403 -2 402 -3 3 -56z m2792 2 l0 -59 -47
-7 c-93 -14 -163 -69 -182 -143 -6 -22 -11 -446 -13 -1068 l-3 -1030 85 3 c47
2 102 5 123 6 l37 3 0 -78 0 -78 -400 0 -400 0 0 59 0 58 50 6 c71 9 127 43
158 97 32 53 30 -5 34 1324 l3 819 -122 -7 -123 -6 0 80 0 80 400 0 400 0 0
-59z"/>
<path d="M4377 3963 c-23 -37 -402 -1101 -395 -1108 3 -3 187 -4 410 -3 l406
3 -84 225 c-46 124 -139 374 -205 555 -67 182 -123 331 -124 333 -2 2 -5 -1
-8 -5z"/>
<path d="M18340 4324 c-159 -34 -280 -104 -401 -231 -159 -167 -260 -394 -300
-672 -16 -115 -6 -377 21 -501 64 -305 179 -523 372 -706 94 -88 179 -138 298
-176 65 -20 96 -23 225 -23 166 0 237 15 360 77 351 178 566 660 516 1158 -36
349 -152 625 -351 834 -132 138 -258 211 -416 242 -94 17 -238 17 -324 -2z"/>
</g>
</svg>
